# xmcd
#
# Track frame offsets:
#	210
#	21526
#	51153
#	71146
#	92698
#	109254
#	126897
#	149628
#	173761
#	188760
#	211325
#	233785
#
# Disc length: 3361 seconds
#
# Revision: 0
# Processed by: cddbd v1.4PL0 Copyright (c) Steve Scherf et al.
# Submitted via: EasyCDDAExtractor 4.6.0.1
#
DISCID=b40d1f0c
DTITLE=Gabriele Marconi - In viaggio
DYEAR=1999
DGENRE=Alternativa
TTITLE0=Le tre prove
TTITLE1=Cani del Re
TTITLE2=In viaggio
TTITLE3=Il prato verde
TTITLE4=L'alito del drago
TTITLE5=Non est fas respicere
TTITLE6=Guarda and Noi pochi
TTITLE7=Muro di scudi
TTITLE8=Fino alla fine del mondo
TTITLE9=Piccolo Attila
TTITLE10=Ricordi
TTITLE11=La terra dell'oro
EXTD=
EXTT0=
EXTT1=
EXTT2=
EXTT3=
EXTT4=
EXTT5=
EXTT6=
EXTT7=
EXTT8=
EXTT9=
EXTT10=
EXTT11=
PLAYORDER=
